# xmcd
#
# Track frame offsets: 
#        150
#        20346
#        38256
#        58125
#        67979
#        82157
#        100721
#        119581
#        136960
#        165476
#        180790
#        210350
#
# Disc length: 2921 seconds
#
# Revision: 0
# Processed by: cddbd v1.5.2PL0 Copyright (c) Steve Scherf et al.
# Submitted via: ExactAudioCopyFreeDBPlugin 1.0
#
DISCID=900b670c
DTITLE=Shirley Gnome - Taking It Up The Notch
DYEAR=2018
DGENRE=Porn Groove
TTITLE0=Pillows
TTITLE1=Believe in Yourself
TTITLE2=Humans Are Animals Too
TTITLE3=Please Don't Think
TTITLE4=Yappy Dog (Mercy)
TTITLE5=I Know, I Know
TTITLE6=Walk in the Park
TTITLE7=Coming Clean
TTITLE8=Sex With You
TTITLE9=Babies
TTITLE10=So Glad
TTITLE11=I'm Still Just a C*nt
EXTD=
EXTT0=
EXTT1=
EXTT2=
EXTT3=
EXTT4=
EXTT5=
EXTT6=
EXTT7=
EXTT8=
EXTT9=
EXTT10=
EXTT11=
PLAYORDER=
